<svg width="52" height="29" viewBox="0 0 52 29" fill="none" xmlns="http://www.w3.org/2000/svg">
<path fill-rule="evenodd" clip-rule="evenodd" d="M1 13.1406V8.98804C1 8.40899 1.37944 7.91896 1.90306 7.75198L5.52748 7.26998C6.50073 6.55677 7.38316 5.7548 8.18236 5.02614L8.18252 5.026C9.87858 3.47963 11.3434 2.14411 13.0961 2.14411L14.8345 2.1435L15.2456 1.38989C15.3766 1.14953 15.6286 1 15.9024 1H19.4604C19.7341 1 19.9861 1.14953 20.1172 1.38989L20.5271 2.14143L22.1366 2.14083C24.8193 2.14083 29.3428 6.46516 29.3428 6.46516L37.3601 7.91801C37.6908 7.96186 37.992 8.13143 38.201 8.39155C38.2243 8.42048 39.7426 11.4173 39.2394 13.0807C39.0405 13.7381 38.2483 14.4382 36.627 14.4382H35.265C34.615 16.1524 32.9566 17.3745 31.0173 17.3745C29.0781 17.3745 27.4197 16.1523 26.7696 14.4382H14.2642C13.6142 16.1524 11.9558 17.3745 10.0165 17.3745C8.07738 17.3745 6.41898 16.1523 5.76896 14.4382H2.29761C1.58095 14.4382 1 13.8572 1 13.1406ZM31.0174 11.1026C30.0633 11.1026 29.2872 11.8787 29.2872 12.8329C29.2872 13.7868 30.0633 14.5631 31.0174 14.5631C31.9715 14.5631 32.7476 13.787 32.7476 12.8329C32.7476 11.8787 31.9715 11.1026 31.0174 11.1026ZM23.2012 10.2082H21.1809V12.2284H23.2012V10.2082ZM23.2012 10.2082H25.2212V8.18806H23.2012V10.2082ZM21.1808 8.18798H19.1607V10.2081H17.1405V8.18798H15.1203V10.2081H17.1405V12.2282H19.1607V10.2081H21.1808V8.18798ZM10.0166 11.1026C9.06263 11.1026 8.2864 11.8787 8.2864 12.8329C8.2864 13.7868 9.06263 14.5629 10.0166 14.5631C10.9707 14.5631 11.7469 13.787 11.7469 12.8329C11.7469 11.8787 10.9707 11.1026 10.0166 11.1026ZM5.77148 19.5029C5.77148 19.7992 5.94238 19.9473 6.28418 19.9473H8.7998V27.624C8.7998 27.8747 8.91374 28 9.1416 28H10.4541C10.682 28 10.7959 27.8747 10.7959 27.624V19.9473H13.3115C13.6533 19.9473 13.8242 19.7992 13.8242 19.5029V18.6416C13.8242 18.3454 13.6533 18.1973 13.3115 18.1973H6.28418C5.94238 18.1973 5.77148 18.3454 5.77148 18.6416V19.5029ZM13.6602 21.6836C13.0859 22.349 12.7988 23.2581 12.7988 24.4111C12.7988 25.5641 13.0768 26.4733 13.6328 27.1387C14.1888 27.804 15.1208 28.1367 16.4287 28.1367C17.2354 28.1367 17.8255 28.0547 18.1992 27.8906C18.5729 27.7266 18.8988 27.4782 19.1768 27.1455C19.3682 26.9176 19.3294 26.7217 19.0605 26.5576L18.377 26.1406C18.1491 26.0039 17.9577 26.0358 17.8027 26.2363C17.666 26.4095 17.4974 26.5462 17.2969 26.6465C17.0964 26.7467 16.807 26.7969 16.4287 26.7969C16.0322 26.7969 15.6836 26.6989 15.3828 26.5029C15.082 26.307 14.8952 25.8307 14.8223 25.0742H19.334C19.5892 25.0742 19.7168 24.9375 19.7168 24.6641C19.7168 23.2695 19.4206 22.2578 18.8281 21.6289C18.2357 21 17.3288 20.6855 16.1074 20.6855C15.0547 20.6855 14.2389 21.0182 13.6602 21.6836ZM17.8027 23.707H14.8291C14.8519 23.1875 14.9886 22.7796 15.2393 22.4834C15.4899 22.1826 15.8294 22.0322 16.2578 22.0322C16.7956 22.0322 17.1875 22.1895 17.4336 22.5039C17.6797 22.8138 17.8027 23.2148 17.8027 23.707ZM20.6328 27.6582C20.6328 27.8861 20.7695 28 21.043 28H26.1016C26.375 28 26.5117 27.8861 26.5117 27.6582V26.9746C26.5117 26.7467 26.375 26.6328 26.1016 26.6328H23.5176C23.3945 26.6328 23.2122 26.6419 22.9707 26.6602V26.6328L26.0537 22.3809C26.2497 22.112 26.3477 21.8659 26.3477 21.6426V21.1641C26.3477 20.9362 26.2109 20.8223 25.9375 20.8223H21.207C20.9336 20.8223 20.7969 21.0911 20.7969 21.6289V21.8477C20.7969 22.0755 20.9336 22.1895 21.207 22.1895H23.4287C23.611 22.1895 23.7933 22.1803 23.9756 22.1621V22.1895L20.9131 26.4004C20.7262 26.6556 20.6328 26.9017 20.6328 27.1387V27.6582ZM27.0996 19.5029C27.0996 19.7992 27.2705 19.9473 27.6123 19.9473H30.1279V27.624C30.1279 27.8747 30.2419 28 30.4697 28H31.7822C32.0101 28 32.124 27.8747 32.124 27.624V19.9473H34.6396C34.9814 19.9473 35.1523 19.7992 35.1523 19.5029V18.6416C35.1523 18.3454 34.9814 18.1973 34.6396 18.1973H27.6123C27.2705 18.1973 27.0996 18.3454 27.0996 18.6416V19.5029ZM35.4326 24.1035C34.5622 24.5137 34.127 25.1745 34.127 26.0859C34.127 26.7194 34.3206 27.2207 34.708 27.5898C35.0954 27.9544 35.6628 28.1367 36.4102 28.1367C36.7246 28.1367 37.0687 28.0775 37.4424 27.959C37.8206 27.8359 38.1442 27.6445 38.4131 27.3848H38.4268V27.5898C38.4268 27.8633 38.5498 28 38.7959 28H39.917C40.1904 28 40.3271 27.8633 40.3271 27.5898V23.2764C40.3271 22.4242 40.0719 21.7793 39.5615 21.3418C39.0557 20.9043 38.3288 20.6855 37.3809 20.6855C36.8203 20.6855 36.3646 20.7334 36.0137 20.8291C35.6628 20.9202 35.3802 21.0182 35.166 21.123C34.9564 21.2279 34.7718 21.3509 34.6123 21.4922C34.4027 21.6745 34.3685 21.8522 34.5098 22.0254L35.0771 22.7227C35.2139 22.8867 35.387 22.8776 35.5967 22.6953C35.7152 22.5951 35.8473 22.4971 35.9932 22.4014C36.1436 22.3011 36.319 22.2145 36.5195 22.1416C36.7246 22.0641 36.9593 22.0254 37.2236 22.0254C37.5973 22.0254 37.889 22.112 38.0986 22.2852C38.3083 22.4583 38.4131 22.7546 38.4131 23.1738V23.4473C37.2966 23.4746 36.3031 23.6934 35.4326 24.1035ZM36.2461 26.4619C36.1823 26.3434 36.1504 26.2044 36.1504 26.0449C36.1504 25.8444 36.2051 25.6712 36.3145 25.5254C36.4284 25.3796 36.6152 25.2383 36.875 25.1016C37.1348 24.9648 37.6475 24.8532 38.4131 24.7666V26.25C38.1442 26.487 37.9004 26.6374 37.6816 26.7012C37.4629 26.765 37.2373 26.7969 37.0049 26.7969C36.8363 26.7969 36.6836 26.7695 36.5469 26.7148C36.4102 26.6602 36.3099 26.5758 36.2461 26.4619ZM41.9883 27.501C41.7604 27.8337 41.8424 28 42.2344 28H43.5264C43.7269 28 43.8818 27.9089 43.9912 27.7266L45.3174 25.498L46.6436 27.7266C46.7529 27.9089 46.9079 28 47.1084 28H48.4004C48.7969 28 48.8789 27.8337 48.6465 27.501L46.3701 24.2197L48.3799 21.3213C48.6123 20.9886 48.5303 20.8223 48.1338 20.8223H46.8418C46.6367 20.8223 46.4818 20.9134 46.377 21.0957L45.3174 22.9414L44.2578 21.0957C44.153 20.9134 43.998 20.8223 43.793 20.8223H42.501C42.1091 20.8223 42.027 20.9886 42.2549 21.3213L44.251 24.2197L41.9883 27.501ZM49.6172 27.5898C49.6172 27.8633 49.7539 28 50.0273 28H51.1211C51.3945 28 51.5312 27.8633 51.5312 27.5898V21.2324C51.5312 20.959 51.3945 20.8223 51.1211 20.8223H50.0273C49.7539 20.8223 49.6172 20.959 49.6172 21.2324V27.5898ZM49.6172 19.3594C49.6172 19.6328 49.7539 19.7695 50.0273 19.7695H51.1211C51.3945 19.7695 51.5312 19.6328 51.5312 19.3594V18.4844C51.5312 18.2109 51.3945 18.0742 51.1211 18.0742H50.0273C49.7539 18.0742 49.6172 18.2109 49.6172 18.4844V19.3594Z" fill="#EDEBDC"/>
<path d="M1.90306 7.75198L1.89341 7.67943L1.88117 7.68334L1.90306 7.75198ZM5.52748 7.26998L5.53698 7.3414L5.55523 7.33898L5.57007 7.3281L5.52748 7.26998ZM8.18236 5.02614L8.13397 4.97275L8.13382 4.97289L8.18236 5.02614ZM8.18252 5.026L8.23091 5.07938L8.23106 5.07924L8.18252 5.026ZM13.0961 2.14411L13.0961 2.21616L13.0961 2.21616L13.0961 2.14411ZM14.8345 2.1435L14.8346 2.21556L14.8773 2.21554L14.8978 2.17801L14.8345 2.1435ZM15.2456 1.38989L15.3088 1.42439L15.3088 1.42438L15.2456 1.38989ZM20.1172 1.38989L20.1805 1.35538L20.1805 1.35538L20.1172 1.38989ZM20.5271 2.14143L20.4639 2.17593L20.4844 2.2135L20.5271 2.21349L20.5271 2.14143ZM22.1366 2.14083L22.1366 2.06877L22.1365 2.06877L22.1366 2.14083ZM29.3428 6.46516L29.293 6.51725L29.3086 6.53221L29.3299 6.53607L29.3428 6.46516ZM37.3601 7.91801L37.3472 7.98899L37.3506 7.98944L37.3601 7.91801ZM38.201 8.39155L38.1448 8.43669L38.1449 8.43677L38.201 8.39155ZM39.2394 13.0807L39.3084 13.1016L39.3084 13.1016L39.2394 13.0807ZM35.265 14.4382V14.3661H35.2152L35.1976 14.4126L35.265 14.4382ZM26.7696 14.4382L26.837 14.4126L26.8194 14.3661H26.7696V14.4382ZM14.2642 14.4382V14.3661H14.2145L14.1968 14.4126L14.2642 14.4382ZM5.76896 14.4382L5.83633 14.4126L5.8187 14.3661H5.76896V14.4382ZM21.1809 10.2082V10.1362H21.1089V10.2082H21.1809ZM21.1809 12.2284H21.1089V12.3004H21.1809V12.2284ZM23.2012 12.2284V12.3004H23.2732V12.2284H23.2012ZM25.2212 10.2082V10.2803H25.2933V10.2082H25.2212ZM25.2212 8.18806H25.2933V8.11601H25.2212V8.18806ZM23.2012 8.18806V8.11601H23.1291V8.18806H23.2012ZM19.1607 8.18798V8.11592H19.0886V8.18798H19.1607ZM21.1808 8.18798H21.2529V8.11592H21.1808V8.18798ZM17.1405 8.18798H17.2125V8.11592H17.1405V8.18798ZM15.1203 8.18798V8.11592H15.0483V8.18798H15.1203ZM15.1203 10.2081H15.0483V10.2802H15.1203V10.2081ZM17.1405 12.2282H17.0684V12.3002H17.1405V12.2282ZM19.1607 12.2282V12.3002H19.2328V12.2282H19.1607ZM21.1808 10.2081V10.2802H21.2529V10.2081H21.1808ZM10.0166 14.5631L10.0166 14.6352H10.0166V14.5631ZM8.7998 19.9473H8.87186V19.8752H8.7998V19.9473ZM10.7959 19.9473V19.8752H10.7238V19.9473H10.7959ZM13.6602 21.6836L13.6058 21.6363L13.6056 21.6365L13.6602 21.6836ZM19.1768 27.1455L19.1216 27.0992L19.1215 27.0993L19.1768 27.1455ZM19.0605 26.5576L19.0981 26.4961L19.0981 26.4961L19.0605 26.5576ZM18.377 26.1406L18.4145 26.0791L18.414 26.0788L18.377 26.1406ZM17.8027 26.2363L17.8593 26.281L17.8598 26.2804L17.8027 26.2363ZM14.8223 25.0742V25.0022H14.7429L14.7505 25.0811L14.8223 25.0742ZM14.8291 23.707L14.7571 23.7039L14.7538 23.7791H14.8291V23.707ZM17.8027 23.707V23.7791H17.8748V23.707H17.8027ZM15.2393 22.4834L15.2943 22.5299L15.2946 22.5295L15.2393 22.4834ZM17.4336 22.5039L17.3768 22.5483L17.3772 22.5487L17.4336 22.5039ZM22.9707 26.6602H22.8986V26.7379L22.9761 26.732L22.9707 26.6602ZM22.9707 26.6328L22.9124 26.5905L22.8986 26.6094V26.6328H22.9707ZM26.0537 22.3809L25.9955 22.3384L25.9954 22.3386L26.0537 22.3809ZM23.9756 22.1621H24.0476V22.0825L23.9684 22.0904L23.9756 22.1621ZM23.9756 22.1895L24.0339 22.2318L24.0476 22.2129V22.1895H23.9756ZM20.9131 26.4004L20.9712 26.443L20.9714 26.4428L20.9131 26.4004ZM30.1279 19.9473H30.2V19.8752H30.1279V19.9473ZM32.124 19.9473V19.8752H32.052V19.9473H32.124ZM34.708 27.5898L34.6583 27.642L34.6586 27.6423L34.708 27.5898ZM37.4424 27.959L37.4642 28.0277L37.4647 28.0275L37.4424 27.959ZM38.4131 27.3848V27.3127H38.384L38.363 27.3329L38.4131 27.3848ZM38.4268 27.3848H38.4988V27.3127H38.4268V27.3848ZM39.5615 21.3418L39.5144 21.3963L39.5146 21.3965L39.5615 21.3418ZM36.0137 20.8291L36.0318 20.8988L36.0326 20.8986L36.0137 20.8291ZM35.166 21.123L35.1343 21.0583L35.1338 21.0586L35.166 21.123ZM34.6123 21.4922L34.6596 21.5466L34.6601 21.5461L34.6123 21.4922ZM34.5098 22.0254L34.5657 21.9799L34.5656 21.9798L34.5098 22.0254ZM35.0771 22.7227L35.0213 22.7681L35.0218 22.7688L35.0771 22.7227ZM35.5967 22.6953L35.5501 22.6403L35.5494 22.6409L35.5967 22.6953ZM35.9932 22.4014L36.0327 22.4616L36.0331 22.4613L35.9932 22.4014ZM36.5195 22.1416L36.5442 22.2093L36.545 22.209L36.5195 22.1416ZM38.4131 23.4473L38.4149 23.5193L38.4851 23.5176V23.4473H38.4131ZM36.2461 26.4619L36.1826 26.4961L36.1832 26.4971L36.2461 26.4619ZM36.3145 25.5254L36.2577 25.481L36.2568 25.4822L36.3145 25.5254ZM38.4131 24.7666H38.4851V24.6859L38.405 24.695L38.4131 24.7666ZM38.4131 26.25L38.4607 26.3041L38.4851 26.2825V26.25H38.4131ZM41.9883 27.501L41.929 27.4601L41.9288 27.4603L41.9883 27.501ZM43.9912 27.7266L44.053 27.7636L44.0531 27.7634L43.9912 27.7266ZM45.3174 25.498L45.3793 25.4612L45.3174 25.3571L45.2555 25.4612L45.3174 25.498ZM46.6436 27.7266L46.5816 27.7634L46.5818 27.7636L46.6436 27.7266ZM48.6465 27.501L48.5873 27.542L48.5874 27.5422L48.6465 27.501ZM46.3701 24.2197L46.3109 24.1787L46.2824 24.2197L46.3109 24.2608L46.3701 24.2197ZM48.3799 21.3213L48.3208 21.28L48.3207 21.2802L48.3799 21.3213ZM46.377 21.0957L46.3145 21.0598L46.3145 21.0598L46.377 21.0957ZM45.3174 22.9414L45.2549 22.9773L45.3174 23.0861L45.3799 22.9773L45.3174 22.9414ZM44.2578 21.0957L44.3203 21.0598L44.3203 21.0598L44.2578 21.0957ZM42.2549 21.3213L42.1954 21.362L42.1955 21.3622L42.2549 21.3213ZM44.251 24.2197L44.3103 24.2606L44.3385 24.2198L44.3103 24.1789L44.251 24.2197ZM0.927945 8.98804V13.1406H1.07206V8.98804H0.927945ZM1.88117 7.68334C1.32858 7.85955 0.927945 8.37669 0.927945 8.98804H1.07206C1.07206 8.4413 1.4303 7.97837 1.92495 7.82063L1.88117 7.68334ZM5.51798 7.19855L1.89356 7.68056L1.91256 7.82341L5.53698 7.3414L5.51798 7.19855ZM8.13382 4.97289C7.33432 5.70183 6.45458 6.50125 5.48489 7.21186L5.57007 7.3281C6.54688 6.61228 7.43201 5.80778 8.23091 5.07938L8.13382 4.97289ZM8.13412 4.97261L8.13397 4.97275L8.23076 5.07952L8.23091 5.07938L8.13412 4.97261ZM13.0961 2.07205C12.2004 2.07205 11.3822 2.41354 10.5783 2.94506C9.77543 3.47593 8.98089 4.20058 8.13397 4.97275L8.23106 5.07924C9.08021 4.30504 9.86611 3.58875 10.6578 3.06527C11.4485 2.54244 12.2391 2.21616 13.0961 2.21616V2.07205ZM14.8345 2.07145L13.0961 2.07205L13.0961 2.21616L14.8346 2.21556L14.8345 2.07145ZM15.1823 1.35538L14.7713 2.109L14.8978 2.17801L15.3088 1.42439L15.1823 1.35538ZM15.9024 0.927945C15.6022 0.927945 15.326 1.09187 15.1823 1.35539L15.3088 1.42438C15.4273 1.20719 15.6549 1.07206 15.9024 1.07206V0.927945ZM19.4604 0.927945H15.9024V1.07206H19.4604V0.927945ZM20.1805 1.35538C20.0367 1.09188 19.7605 0.927945 19.4604 0.927945V1.07206C19.7078 1.07206 19.9354 1.20718 20.0539 1.4244L20.1805 1.35538ZM20.5904 2.10693L20.1805 1.35538L20.0539 1.42439L20.4639 2.17593L20.5904 2.10693ZM22.1365 2.06877L20.5271 2.06938L20.5271 2.21349L22.1366 2.21288L22.1365 2.06877ZM29.3428 6.46516C29.3926 6.41308 29.3925 6.41306 29.3925 6.41302C29.3924 6.41298 29.3924 6.41292 29.3923 6.41285C29.3922 6.41271 29.392 6.41251 29.3917 6.41223C29.3911 6.41169 29.3903 6.41089 29.3891 6.40983C29.3869 6.40771 29.3836 6.40457 29.3792 6.40044C29.3705 6.39218 29.3576 6.37995 29.3406 6.36403C29.3066 6.33219 29.2565 6.28556 29.1919 6.22625C29.0625 6.10764 28.8749 5.93829 28.6414 5.73513C28.1744 5.32886 27.5236 4.78701 26.7885 4.245C26.0536 3.70317 25.2331 3.1601 24.4269 2.75221C23.6222 2.34512 22.8243 2.06877 22.1366 2.06877V2.21288C22.7903 2.21288 23.5638 2.47708 24.3618 2.8808C25.1582 3.28372 25.9716 3.82174 26.7029 4.36099C27.434 4.90006 28.0818 5.4393 28.5468 5.84385C28.7792 6.04609 28.9659 6.21458 29.0945 6.33246C29.1587 6.39139 29.2084 6.43767 29.242 6.46917C29.2588 6.48492 29.2716 6.49698 29.2802 6.50508C29.2844 6.50913 29.2877 6.51219 29.2898 6.51423C29.2909 6.51525 29.2917 6.51601 29.2922 6.51652C29.2925 6.51677 29.2927 6.51696 29.2928 6.51708C29.2929 6.51714 29.2929 6.51718 29.2929 6.51721C29.293 6.51724 29.293 6.51725 29.3428 6.46516ZM37.3729 7.84711L29.3556 6.39426L29.3299 6.53607L37.3472 7.98891L37.3729 7.84711ZM38.2571 8.34642C38.0365 8.07185 37.7187 7.89287 37.3695 7.84658L37.3506 7.98944C37.663 8.03086 37.9474 8.191 38.1448 8.43669L38.2571 8.34642ZM39.3084 13.1016C39.4384 12.6716 39.4367 12.1606 39.3641 11.6404C39.2913 11.1193 39.1466 10.5833 38.986 10.1005C38.8253 9.61737 38.6481 9.18587 38.5097 8.87334C38.4405 8.71704 38.3809 8.59033 38.3377 8.50161C38.3162 8.45727 38.2987 8.42232 38.2861 8.39783C38.2799 8.38562 38.2747 8.3758 38.2709 8.36864C38.2689 8.3651 38.2672 8.36188 38.2657 8.35922C38.2655 8.3589 38.2618 8.35216 38.2571 8.34634L38.1449 8.43677C38.1409 8.43185 38.1387 8.42746 38.1406 8.43091C38.1413 8.43202 38.1424 8.43399 38.144 8.43702C38.1472 8.44299 38.1519 8.45185 38.1579 8.46358C38.1699 8.48698 38.1869 8.521 38.2081 8.56462C38.2505 8.65184 38.3094 8.777 38.3779 8.9317C38.515 9.2412 38.6904 9.6683 38.8492 10.146C39.0082 10.6238 39.1502 11.1508 39.2213 11.6603C39.2926 12.1708 39.2919 12.6582 39.1704 13.0599L39.3084 13.1016ZM36.627 14.5102C38.268 14.5102 39.0972 13.7995 39.3084 13.1016L39.1704 13.0599C38.9838 13.6767 38.2286 14.3661 36.627 14.3661V14.5102ZM35.265 14.5102H36.627V14.3661H35.265V14.5102ZM31.0173 17.4466C32.9876 17.4466 34.6721 16.205 35.3324 14.4637L35.1976 14.4126C34.5578 16.0999 32.9255 17.3025 31.0173 17.3025V17.4466ZM26.7023 14.4637C27.3626 16.2048 29.047 17.4466 31.0173 17.4466V17.3025C29.1091 17.3025 27.4769 16.0998 26.837 14.4126L26.7023 14.4637ZM14.2642 14.5102H26.7696V14.3661H14.2642V14.5102ZM10.0165 17.4466C11.9868 17.4466 13.6713 16.205 14.3316 14.4637L14.1968 14.4126C13.5571 16.0999 11.9248 17.3025 10.0165 17.3025V17.4466ZM5.70159 14.4637C6.36183 16.2048 8.04636 17.4466 10.0165 17.4466V17.3025C8.1084 17.3025 6.47612 16.0998 5.83633 14.4126L5.70159 14.4637ZM2.29761 14.5102H5.76896V14.3661H2.29761V14.5102ZM0.927945 13.1406C0.927945 13.897 1.54115 14.5102 2.29761 14.5102V14.3661C1.62074 14.3661 1.07206 13.8174 1.07206 13.1406H0.927945ZM29.3592 12.8329C29.3592 11.9185 30.1031 11.1747 31.0174 11.1747V11.0306C30.0235 11.0306 29.2151 11.8389 29.2151 12.8329H29.3592ZM31.0174 14.4911C30.1031 14.4911 29.3592 13.747 29.3592 12.8329H29.2151C29.2151 13.8266 30.0235 14.6352 31.0174 14.6352V14.4911ZM32.6756 12.8329C32.6756 13.7472 31.9317 14.4911 31.0174 14.4911V14.6352C32.0113 14.6352 32.8197 13.8268 32.8197 12.8329H32.6756ZM31.0174 11.1747C31.9317 11.1747 32.6756 11.9185 32.6756 12.8329H32.8197C32.8197 11.8389 32.0113 11.0306 31.0174 11.0306V11.1747ZM21.1809 10.2803H23.2012V10.1362H21.1809V10.2803ZM21.253 12.2284V10.2082H21.1089V12.2284H21.253ZM23.2012 12.1563H21.1809V12.3004H23.2012V12.1563ZM23.1291 10.2082V12.2284H23.2732V10.2082H23.1291ZM25.2212 10.1362H23.2012V10.2803H25.2212V10.1362ZM25.1492 8.18806V10.2082H25.2933V8.18806H25.1492ZM23.2012 8.26012H25.2212V8.11601H23.2012V8.26012ZM23.2732 10.2082V8.18806H23.1291V10.2082H23.2732ZM19.1607 8.26003H21.1808V8.11592H19.1607V8.26003ZM19.2328 10.2081V8.18798H19.0886V10.2081H19.2328ZM17.1405 10.2802H19.1607V10.1361H17.1405V10.2802ZM17.0684 8.18798V10.2081H17.2125V8.18798H17.0684ZM15.1203 8.26003H17.1405V8.11592H15.1203V8.26003ZM15.1924 10.2081V8.18798H15.0483V10.2081H15.1924ZM17.1405 10.1361H15.1203V10.2802H17.1405V10.1361ZM17.2125 12.2282V10.2081H17.0684V12.2282H17.2125ZM19.1607 12.1561H17.1405V12.3002H19.1607V12.1561ZM19.0886 10.2081V12.2282H19.2328V10.2081H19.0886ZM21.1808 10.1361H19.1607V10.2802H21.1808V10.1361ZM21.1088 8.18798V10.2081H21.2529V8.18798H21.1088ZM8.35845 12.8329C8.35845 11.9185 9.10242 11.1747 10.0166 11.1747V11.0306C9.02284 11.0306 8.21434 11.8389 8.21434 12.8329H8.35845ZM10.0166 14.4911C9.10242 14.4909 8.35845 13.747 8.35845 12.8329H8.21434C8.21434 13.8266 9.02285 14.635 10.0166 14.6352L10.0166 14.4911ZM11.6748 12.8329C11.6748 13.7472 10.9309 14.4911 10.0166 14.4911V14.6352C11.0105 14.6352 11.8189 13.8268 11.8189 12.8329H11.6748ZM10.0166 11.1747C10.9309 11.1747 11.6748 11.9185 11.6748 12.8329H11.8189C11.8189 11.8389 11.0105 11.0306 10.0166 11.0306V11.1747ZM6.28418 19.8752C6.12206 19.8752 6.01393 19.8399 5.94685 19.7817C5.88174 19.7253 5.84354 19.637 5.84354 19.5029H5.69943C5.69943 19.665 5.74667 19.7989 5.85247 19.8906C5.95629 19.9806 6.1045 20.0193 6.28418 20.0193V19.8752ZM8.7998 19.8752H6.28418V20.0193H8.7998V19.8752ZM8.87186 27.624V19.9473H8.72775V27.624H8.87186ZM9.1416 27.9279C9.04064 27.9279 8.97763 27.9005 8.93857 27.8575C8.89833 27.8133 8.87186 27.7399 8.87186 27.624H8.72775C8.72775 27.7588 8.75824 27.8734 8.83194 27.9545C8.90681 28.0368 9.0147 28.0721 9.1416 28.0721V27.9279ZM10.4541 27.9279H9.1416V28.0721H10.4541V27.9279ZM10.7238 27.624C10.7238 27.7399 10.6974 27.8133 10.6571 27.8575C10.6181 27.9005 10.5551 27.9279 10.4541 27.9279V28.0721C10.581 28.0721 10.6889 28.0368 10.7638 27.9545C10.8375 27.8734 10.868 27.7588 10.868 27.624H10.7238ZM10.7238 19.9473V27.624H10.868V19.9473H10.7238ZM13.3115 19.8752H10.7959V20.0193H13.3115V19.8752ZM13.7522 19.5029C13.7522 19.637 13.714 19.7253 13.6489 19.7817C13.5818 19.8399 13.4736 19.8752 13.3115 19.8752V20.0193C13.4912 20.0193 13.6394 19.9806 13.7432 19.8906C13.849 19.7989 13.8963 19.665 13.8963 19.5029H13.7522ZM13.7522 18.6416V19.5029H13.8963V18.6416H13.7522ZM13.3115 18.2693C13.4736 18.2693 13.5818 18.3047 13.6489 18.3628C13.714 18.4192 13.7522 18.5075 13.7522 18.6416H13.8963C13.8963 18.4795 13.849 18.3456 13.7432 18.2539C13.6394 18.1639 13.4912 18.1252 13.3115 18.1252V18.2693ZM6.28418 18.2693H13.3115V18.1252H6.28418V18.2693ZM5.84354 18.6416C5.84354 18.5075 5.88174 18.4192 5.94685 18.3628C6.01393 18.3047 6.12206 18.2693 6.28418 18.2693V18.1252C6.1045 18.1252 5.95629 18.1639 5.85247 18.2539C5.74667 18.3456 5.69943 18.4795 5.69943 18.6416H5.84354ZM5.84354 19.5029V18.6416H5.69943V19.5029H5.84354ZM12.8709 24.4111C12.8709 23.2699 13.1549 22.3793 13.7147 21.7307L13.6056 21.6365C13.017 22.3186 12.7268 23.2463 12.7268 24.4111H12.8709ZM13.6881 27.0925C13.1461 26.4438 12.8709 25.5528 12.8709 24.4111H12.7268C12.7268 25.5754 13.0076 26.5028 13.5775 27.1849L13.6881 27.0925ZM16.4287 28.0647C15.1311 28.0647 14.2246 27.7345 13.6881 27.0925L13.5775 27.1849C14.153 27.8735 15.1104 28.2088 16.4287 28.2088V28.0647ZM18.1703 27.8246C17.8108 27.9824 17.2332 28.0647 16.4287 28.0647V28.2088C17.2375 28.2088 17.8402 28.1269 18.2282 27.9566L18.1703 27.8246ZM19.1215 27.0993C18.8501 27.424 18.5331 27.6653 18.1703 27.8246L18.2282 27.9566C18.6127 27.7878 18.9474 27.5324 19.2321 27.1917L19.1215 27.0993ZM19.023 26.6191C19.15 26.6966 19.2069 26.7724 19.2206 26.8416C19.234 26.9093 19.2103 26.9935 19.1216 27.0992L19.2319 27.1919C19.3346 27.0696 19.3873 26.9419 19.3619 26.8137C19.3369 26.6869 19.24 26.5827 19.0981 26.4961L19.023 26.6191ZM18.3394 26.2021L19.023 26.6191L19.0981 26.4961L18.4145 26.0791L18.3394 26.2021ZM17.8598 26.2804C17.9296 26.19 18.0015 26.1452 18.0743 26.1331C18.1478 26.1208 18.2352 26.1396 18.3399 26.2024L18.414 26.0788C18.2908 26.0049 18.1686 25.9713 18.0507 25.9909C17.9321 26.0107 17.8308 26.0822 17.7457 26.1923L17.8598 26.2804ZM17.3291 26.7109C17.5389 26.606 17.7159 26.4626 17.8593 26.281L17.7462 26.1917C17.6161 26.3564 17.4559 26.4864 17.2647 26.582L17.3291 26.7109ZM16.4287 26.8689C16.8114 26.8689 17.1139 26.8185 17.3291 26.7109L17.2647 26.582C17.0788 26.675 16.8025 26.7248 16.4287 26.7248V26.8689ZM15.3435 26.5633C15.6572 26.7677 16.0198 26.8689 16.4287 26.8689V26.7248C16.0447 26.7248 15.71 26.6301 15.4221 26.4426L15.3435 26.5633ZM14.7505 25.0811C14.7874 25.4631 14.8533 25.7785 14.95 26.0251C15.0467 26.2715 15.1762 26.4543 15.3435 26.5633L15.4221 26.4426C15.2886 26.3556 15.1744 26.2023 15.0842 25.9725C14.9941 25.7428 14.9301 25.4418 14.894 25.0673L14.7505 25.0811ZM19.334 25.0022H14.8223V25.1463H19.334V25.0022ZM19.6447 24.6641C19.6447 24.7909 19.6151 24.8725 19.5684 24.9225C19.5227 24.9715 19.4492 25.0022 19.334 25.0022V25.1463C19.474 25.1463 19.5919 25.1085 19.6738 25.0208C19.7547 24.9341 19.7889 24.8107 19.7889 24.6641H19.6447ZM18.7757 21.6783C19.3497 22.2877 19.6447 23.2772 19.6447 24.6641H19.7889C19.7889 23.2619 19.4914 22.2279 18.8806 21.5795L18.7757 21.6783ZM16.1074 20.7576C17.3173 20.7576 18.2017 21.069 18.7757 21.6783L18.8806 21.5795C18.2697 20.931 17.3402 20.6135 16.1074 20.6135V20.7576ZM13.7145 21.7309C14.277 21.0843 15.0711 20.7576 16.1074 20.7576V20.6135C15.0383 20.6135 14.2009 20.9521 13.6058 21.6363L13.7145 21.7309ZM14.8291 23.7791H17.8027V23.635H14.8291V23.7791ZM15.1843 22.4369C14.9203 22.7488 14.7804 23.1738 14.7571 23.7039L14.9011 23.7102C14.9234 23.2012 15.0569 22.8104 15.2943 22.5299L15.1843 22.4369ZM16.2578 21.9602C15.8103 21.9602 15.4496 22.1184 15.1839 22.4373L15.2946 22.5295C15.5302 22.2469 15.8485 22.1043 16.2578 22.1043V21.9602ZM17.4903 22.4595C17.2262 22.122 16.8095 21.9602 16.2578 21.9602V22.1043C16.7817 22.1043 17.1488 22.2569 17.3768 22.5483L17.4903 22.4595ZM17.8748 23.707C17.8748 23.2026 17.7485 22.7846 17.49 22.4591L17.3772 22.5487C17.6109 22.843 17.7307 23.2271 17.7307 23.707H17.8748ZM21.043 27.9279C20.9145 27.9279 20.8315 27.9009 20.7815 27.8592C20.7339 27.8196 20.7049 27.7572 20.7049 27.6582H20.5608C20.5608 27.787 20.6 27.8956 20.6892 27.9699C20.7759 28.0421 20.898 28.0721 21.043 28.0721V27.9279ZM26.1016 27.9279H21.043V28.0721H26.1016V27.9279ZM26.4397 27.6582C26.4397 27.7572 26.4106 27.8196 26.3631 27.8592C26.313 27.9009 26.23 27.9279 26.1016 27.9279V28.0721C26.2465 28.0721 26.3686 28.0421 26.4553 27.9699C26.5445 27.8956 26.5838 27.787 26.5838 27.6582H26.4397ZM26.4397 26.9746V27.6582H26.5838V26.9746H26.4397ZM26.1016 26.7049C26.23 26.7049 26.313 26.7319 26.3631 26.7736C26.4106 26.8132 26.4397 26.8756 26.4397 26.9746H26.5838C26.5838 26.8458 26.5445 26.7372 26.4553 26.6629C26.3686 26.5907 26.2465 26.5608 26.1016 26.5608V26.7049ZM23.5176 26.7049H26.1016V26.5608H23.5176V26.7049ZM22.9761 26.732C23.2172 26.7138 23.3973 26.7049 23.5176 26.7049V26.5608C23.3917 26.5608 23.2073 26.57 22.9653 26.5883L22.9761 26.732ZM22.8986 26.6328V26.6602H23.0428V26.6328H22.8986ZM25.9954 22.3386L22.9124 26.5905L23.029 26.6751L26.112 22.4232L25.9954 22.3386ZM26.2756 21.6426C26.2756 21.8448 26.1866 22.0761 25.9955 22.3384L26.1119 22.4233C26.3127 22.1478 26.4197 21.887 26.4197 21.6426H26.2756ZM26.2756 21.1641V21.6426H26.4197V21.1641H26.2756ZM25.9375 20.8943C26.066 20.8943 26.1489 20.9214 26.199 20.9631C26.2465 21.0027 26.2756 21.065 26.2756 21.1641H26.4197C26.4197 21.0352 26.3804 20.9267 26.2912 20.8524C26.2046 20.7801 26.0825 20.7502 25.9375 20.7502V20.8943ZM21.207 20.8943H25.9375V20.7502H21.207V20.8943ZM20.8689 21.6289C20.8689 21.3638 20.903 21.1758 20.9636 21.0566C20.9934 20.998 21.0285 20.9582 21.0671 20.9329C21.1053 20.9079 21.151 20.8943 21.207 20.8943V20.7502C21.1263 20.7502 21.0524 20.7702 20.9881 20.8124C20.9241 20.8543 20.8738 20.9154 20.8352 20.9913C20.7591 21.1409 20.7248 21.3563 20.7248 21.6289H20.8689ZM20.8689 21.8477V21.6289H20.7248V21.8477H20.8689ZM21.207 22.1174C21.0785 22.1174 20.9956 22.0904 20.9455 22.0486C20.898 22.009 20.8689 21.9467 20.8689 21.8477H20.7248C20.7248 21.9765 20.7641 22.085 20.8533 22.1594C20.94 22.2316 21.0621 22.2615 21.207 22.2615V22.1174ZM23.4287 22.1174H21.207V22.2615H23.4287V22.1174ZM23.9684 22.0904C23.7885 22.1084 23.6086 22.1174 23.4287 22.1174V22.2615C23.6134 22.2615 23.7981 22.2523 23.9828 22.2338L23.9684 22.0904ZM24.0476 22.1895V22.1621H23.9035V22.1895H24.0476ZM20.9714 26.4428L24.0339 22.2318L23.9173 22.1471L20.8548 26.358L20.9714 26.4428ZM20.7049 27.1387C20.7049 26.9214 20.7904 26.6899 20.9712 26.443L20.8549 26.3578C20.6621 26.6213 20.5608 26.882 20.5608 27.1387H20.7049ZM20.7049 27.6582V27.1387H20.5608V27.6582H20.7049ZM27.6123 19.8752C27.4502 19.8752 27.3421 19.8399 27.275 19.7817C27.2099 19.7253 27.1717 19.637 27.1717 19.5029H27.0276C27.0276 19.665 27.0748 19.7989 27.1806 19.8906C27.2844 19.9806 27.4326 20.0193 27.6123 20.0193V19.8752ZM30.1279 19.8752H27.6123V20.0193H30.1279V19.8752ZM30.2 27.624V19.9473H30.0559V27.624H30.2ZM30.4697 27.9279C30.3688 27.9279 30.3057 27.9005 30.2667 27.8575C30.2265 27.8133 30.2 27.7399 30.2 27.624H30.0559C30.0559 27.7588 30.0864 27.8734 30.1601 27.9545C30.2349 28.0368 30.3428 28.0721 30.4697 28.0721V27.9279ZM31.7822 27.9279H30.4697V28.0721H31.7822V27.9279ZM32.052 27.624C32.052 27.7399 32.0255 27.8133 31.9853 27.8575C31.9462 27.9005 31.8832 27.9279 31.7822 27.9279V28.0721C31.9091 28.0721 32.017 28.0368 32.0919 27.9545C32.1656 27.8734 32.1961 27.7588 32.1961 27.624H32.052ZM32.052 19.9473V27.624H32.1961V19.9473H32.052ZM34.6396 19.8752H32.124V20.0193H34.6396V19.8752ZM35.0803 19.5029C35.0803 19.637 35.0421 19.7253 34.977 19.7817C34.9099 19.8399 34.8018 19.8752 34.6396 19.8752V20.0193C34.8193 20.0193 34.9675 19.9806 35.0714 19.8906C35.1772 19.7989 35.2244 19.665 35.2244 19.5029H35.0803ZM35.0803 18.6416V19.5029H35.2244V18.6416H35.0803ZM34.6396 18.2693C34.8018 18.2693 34.9099 18.3047 34.977 18.3628C35.0421 18.4192 35.0803 18.5075 35.0803 18.6416H35.2244C35.2244 18.4795 35.1772 18.3456 35.0714 18.2539C34.9675 18.1639 34.8193 18.1252 34.6396 18.1252V18.2693ZM27.6123 18.2693H34.6396V18.1252H27.6123V18.2693ZM27.1717 18.6416C27.1717 18.5075 27.2099 18.4192 27.275 18.3628C27.3421 18.3047 27.4502 18.2693 27.6123 18.2693V18.1252C27.4326 18.1252 27.2844 18.1639 27.1806 18.2539C27.0748 18.3456 27.0276 18.4795 27.0276 18.6416H27.1717ZM27.1717 19.5029V18.6416H27.0276V19.5029H27.1717ZM34.199 26.0859C34.199 25.6421 34.3048 25.2633 34.5135 24.9464C34.7224 24.6292 35.0375 24.3694 35.4633 24.1687L35.4019 24.0383C34.9573 24.2478 34.6195 24.5235 34.3932 24.8671C34.1667 25.211 34.0549 25.6183 34.0549 26.0859H34.199ZM34.7577 27.5377C34.3872 27.1846 34.199 26.7036 34.199 26.0859H34.0549C34.0549 26.7352 34.254 27.2568 34.6583 27.642L34.7577 27.5377ZM36.4102 28.0647C35.6737 28.0647 35.1268 27.8851 34.7574 27.5374L34.6586 27.6423C35.064 28.0238 35.6519 28.2088 36.4102 28.2088V28.0647ZM37.4206 27.8903C37.0523 28.0071 36.7157 28.0647 36.4102 28.0647V28.2088C36.7336 28.2088 37.0851 28.1479 37.4642 28.0277L37.4206 27.8903ZM38.363 27.3329C38.1025 27.5846 37.7886 27.7706 37.4201 27.8905L37.4647 28.0275C37.8527 27.9013 38.1859 27.7044 38.4632 27.4366L38.363 27.3329ZM38.4268 27.3127H38.4131V27.4568H38.4268V27.3127ZM38.4988 27.5898V27.3848H38.3547V27.5898H38.4988ZM38.7959 27.9279C38.686 27.9279 38.6163 27.8978 38.5726 27.8493C38.5276 27.7993 38.4988 27.7172 38.4988 27.5898H38.3547C38.3547 27.7359 38.3874 27.8589 38.4655 27.9457C38.5449 28.0339 38.6597 28.0721 38.7959 28.0721V27.9279ZM39.917 27.9279H38.7959V28.0721H39.917V27.9279ZM40.2551 27.5898C40.2551 27.7155 40.2237 27.7964 40.1737 27.8465C40.1236 27.8966 40.0426 27.9279 39.917 27.9279V28.0721C40.0648 28.0721 40.1889 28.0351 40.2756 27.9484C40.3622 27.8618 40.3992 27.7377 40.3992 27.5898H40.2551ZM40.2551 23.2764V27.5898H40.3992V23.2764H40.2551ZM39.5146 21.3965C40.005 21.8168 40.2551 22.4391 40.2551 23.2764H40.3992C40.3992 22.4092 40.1389 21.7418 39.6084 21.2871L39.5146 21.3965ZM37.3809 20.7576C38.3186 20.7576 39.0262 20.9741 39.5144 21.3963L39.6087 21.2873C39.0852 20.8345 38.3389 20.6135 37.3809 20.6135V20.7576ZM36.0326 20.8986C36.375 20.8052 36.8237 20.7576 37.3809 20.7576V20.6135C36.817 20.6135 36.3542 20.6615 35.9947 20.7596L36.0326 20.8986ZM35.1977 21.1878C35.4059 21.0859 35.6834 20.9893 36.0318 20.8988L35.9956 20.7594C35.6421 20.8512 35.3545 20.9506 35.1343 21.0583L35.1977 21.1878ZM34.6601 21.5461C34.8144 21.4094 34.9937 21.2898 35.1982 21.1875L35.1338 21.0586C34.9191 21.1659 34.7292 21.2924 34.5645 21.4382L34.6601 21.5461ZM34.5656 21.9798C34.505 21.9055 34.4881 21.8389 34.5002 21.7758C34.513 21.7093 34.5608 21.6325 34.6596 21.5466L34.565 21.4378C34.4542 21.5342 34.3801 21.6374 34.3587 21.7486C34.3366 21.8633 34.3733 21.9721 34.4539 22.0709L34.5656 21.9798ZM35.133 22.6772L34.5657 21.9799L34.4539 22.0709L35.0213 22.7681L35.133 22.6772ZM35.5494 22.6409C35.4499 22.7274 35.3692 22.7636 35.3058 22.7669C35.2472 22.77 35.1901 22.7456 35.1325 22.6765L35.0218 22.7688C35.1009 22.8638 35.1988 22.9169 35.3134 22.9108C35.4231 22.905 35.5338 22.8455 35.644 22.7497L35.5494 22.6409ZM35.9536 22.3411C35.8057 22.4382 35.6711 22.5379 35.5501 22.6403L35.6432 22.7503C35.7592 22.6522 35.889 22.5559 36.0327 22.4616L35.9536 22.3411ZM36.4949 22.0739C36.2899 22.1484 36.1091 22.2375 35.9532 22.3414L36.0331 22.4613C36.178 22.3648 36.3481 22.2806 36.5442 22.2093L36.4949 22.0739ZM37.2236 21.9533C36.9523 21.9533 36.7088 21.9931 36.4941 22.0742L36.545 22.209C36.7405 22.1352 36.9663 22.0974 37.2236 22.0974V21.9533ZM38.1445 22.2296C37.9179 22.0424 37.6078 21.9533 37.2236 21.9533V22.0974C37.5868 22.0974 37.8601 22.1816 38.0527 22.3407L38.1445 22.2296ZM38.4851 23.1738C38.4851 22.7448 38.378 22.4225 38.1445 22.2296L38.0527 22.3407C38.2385 22.4942 38.341 22.7643 38.341 23.1738H38.4851ZM38.4851 23.4473V23.1738H38.341V23.4473H38.4851ZM35.4633 24.1687C36.3234 23.7634 37.3067 23.5464 38.4149 23.5193L38.4113 23.3752C37.2864 23.4028 36.2828 23.6233 35.4019 24.0383L35.4633 24.1687ZM36.0783 26.0449C36.0783 26.2141 36.1122 26.3653 36.1827 26.4961L36.3095 26.4278C36.2523 26.3215 36.2224 26.1947 36.2224 26.0449H36.0783ZM36.2568 25.4822C36.1371 25.6417 36.0783 25.8305 36.0783 26.0449H36.2224C36.2224 25.8583 36.273 25.7007 36.3721 25.5686L36.2568 25.4822ZM36.8414 25.0378C36.5774 25.1768 36.3805 25.3238 36.2577 25.481L36.3712 25.5698C36.4763 25.4353 36.6531 25.2998 36.9086 25.1653L36.8414 25.0378ZM38.405 24.695C37.6405 24.7815 37.1148 24.8939 36.8414 25.0378L36.9086 25.1653C37.1548 25.0357 37.6545 24.9249 38.4212 24.8382L38.405 24.695ZM38.4851 26.25V24.7666H38.341V26.25H38.4851ZM37.7018 26.7703C37.9349 26.7024 38.188 26.5444 38.4607 26.3041L38.3654 26.1959C38.1004 26.4295 37.8659 26.5724 37.6615 26.632L37.7018 26.7703ZM37.0049 26.8689C37.244 26.8689 37.4764 26.8361 37.7018 26.7703L37.6615 26.632C37.4494 26.6939 37.2306 26.7248 37.0049 26.7248V26.8689ZM36.5201 26.7817C36.6665 26.8403 36.8284 26.8689 37.0049 26.8689V26.7248C36.8441 26.7248 36.7007 26.6988 36.5736 26.6479L36.5201 26.7817ZM36.1832 26.4971C36.2561 26.6273 36.3702 26.7218 36.5201 26.7817L36.5736 26.6479C36.4502 26.5986 36.3637 26.5244 36.309 26.4267L36.1832 26.4971ZM42.2344 27.9279C42.1405 27.9279 42.0709 27.9179 42.0224 27.9008C41.9745 27.884 41.9531 27.8628 41.9435 27.8434C41.9337 27.8235 41.9294 27.7915 41.9447 27.7395C41.9599 27.6873 41.993 27.6216 42.0477 27.5417L41.9288 27.4603C41.8697 27.5466 41.8275 27.6265 41.8063 27.6991C41.7851 27.7718 41.7831 27.8438 41.8143 27.9071C41.8457 27.9709 41.9041 28.012 41.9747 28.0368C42.0446 28.0614 42.1323 28.0721 42.2344 28.0721V27.9279ZM43.5264 27.9279H42.2344V28.0721H43.5264V27.9279ZM43.9294 27.6895C43.8321 27.8517 43.6998 27.9279 43.5264 27.9279V28.0721C43.754 28.0721 43.9316 27.966 44.053 27.7636L43.9294 27.6895ZM45.2555 25.4612L43.9293 27.6897L44.0531 27.7634L45.3793 25.5349L45.2555 25.4612ZM46.7055 27.6897L45.3793 25.4612L45.2555 25.5349L46.5816 27.7634L46.7055 27.6897ZM47.1084 27.9279C46.935 27.9279 46.8026 27.8517 46.7053 27.6895L46.5818 27.7636C46.7032 27.966 46.8808 28.0721 47.1084 28.0721V27.9279ZM48.4004 27.9279H47.1084V28.0721H48.4004V27.9279ZM48.5874 27.5422C48.6433 27.6222 48.6771 27.6879 48.6929 27.7401C48.7085 27.7921 48.7043 27.8238 48.6947 27.8434C48.6852 27.8625 48.6638 27.8838 48.6151 27.9008C48.566 27.9178 48.4955 27.9279 48.4004 27.9279V28.0721C48.5035 28.0721 48.592 28.0614 48.6625 28.0369C48.7335 28.0122 48.7923 27.9711 48.8239 27.9071C48.8553 27.8435 48.8528 27.7713 48.8308 27.6985C48.809 27.6259 48.7659 27.5461 48.7056 27.4597L48.5874 27.5422ZM46.3109 24.2608L48.5873 27.542L48.7057 27.4599L46.4293 24.1787L46.3109 24.2608ZM48.3207 21.2802L46.3109 24.1787L46.4293 24.2608L48.4391 21.3623L48.3207 21.2802ZM48.1338 20.8943C48.2289 20.8943 48.2994 20.9044 48.3485 20.9215C48.3972 20.9384 48.4186 20.9597 48.4281 20.9789C48.4377 20.9985 48.4419 21.0302 48.4262 21.0822C48.4105 21.1344 48.3767 21.2 48.3208 21.28L48.439 21.3626C48.4993 21.2762 48.5424 21.1963 48.5642 21.1238C48.5862 21.051 48.5887 20.9787 48.5573 20.9152C48.5257 20.8512 48.4669 20.8101 48.3959 20.7854C48.3254 20.7609 48.2369 20.7502 48.1338 20.7502V20.8943ZM46.8418 20.8943H48.1338V20.7502H46.8418V20.8943ZM46.4394 21.1316C46.5318 20.971 46.6633 20.8943 46.8418 20.8943V20.7502C46.6101 20.7502 46.4318 20.8558 46.3145 21.0598L46.4394 21.1316ZM45.3799 22.9773L46.4394 21.1316L46.3145 21.0598L45.2549 22.9055L45.3799 22.9773ZM44.1953 21.1316L45.2549 22.9773L45.3799 22.9055L44.3203 21.0598L44.1953 21.1316ZM43.793 20.8943C43.9715 20.8943 44.103 20.971 44.1953 21.1316L44.3203 21.0598C44.203 20.8558 44.0246 20.7502 43.793 20.7502V20.8943ZM42.501 20.8943H43.793V20.7502H42.501V20.8943ZM42.3143 21.2806C42.2596 21.2006 42.2265 21.135 42.2113 21.0828C42.196 21.0307 42.2003 20.9988 42.2101 20.9789C42.2197 20.9595 42.2411 20.9383 42.289 20.9214C42.3375 20.9044 42.4071 20.8943 42.501 20.8943V20.7502C42.3989 20.7502 42.3112 20.7609 42.2413 20.7855C42.1707 20.8102 42.1123 20.8514 42.0809 20.9152C42.0497 20.9784 42.0517 21.0504 42.0729 21.1232C42.0941 21.1957 42.1363 21.2756 42.1954 21.362L42.3143 21.2806ZM44.3103 24.1789L42.3142 21.2804L42.1955 21.3622L44.1916 24.2606L44.3103 24.1789ZM42.0476 27.5419L44.3103 24.2606L44.1917 24.1788L41.929 27.4601L42.0476 27.5419ZM50.0273 27.9279C49.9017 27.9279 49.8208 27.8966 49.7707 27.8465C49.7206 27.7964 49.6892 27.7155 49.6892 27.5898H49.5451C49.5451 27.7377 49.5821 27.8618 49.6688 27.9484C49.7554 28.0351 49.8795 28.0721 50.0273 28.0721V27.9279ZM51.1211 27.9279H50.0273V28.0721H51.1211V27.9279ZM51.4592 27.5898C51.4592 27.7155 51.4278 27.7964 51.3778 27.8465C51.3277 27.8966 51.2467 27.9279 51.1211 27.9279V28.0721C51.2689 28.0721 51.393 28.0351 51.4797 27.9484C51.5663 27.8618 51.6033 27.7377 51.6033 27.5898H51.4592ZM51.4592 21.2324V27.5898H51.6033V21.2324H51.4592ZM51.1211 20.8943C51.2467 20.8943 51.3277 20.9257 51.3778 20.9758C51.4278 21.0258 51.4592 21.1068 51.4592 21.2324H51.6033C51.6033 21.0846 51.5663 20.9605 51.4797 20.8739C51.393 20.7872 51.2689 20.7502 51.1211 20.7502V20.8943ZM50.0273 20.8943H51.1211V20.7502H50.0273V20.8943ZM49.6892 21.2324C49.6892 21.1068 49.7206 21.0258 49.7707 20.9758C49.8208 20.9257 49.9017 20.8943 50.0273 20.8943V20.7502C49.8795 20.7502 49.7554 20.7872 49.6688 20.8739C49.5821 20.9605 49.5451 21.0846 49.5451 21.2324H49.6892ZM49.6892 27.5898V21.2324H49.5451V27.5898H49.6892ZM50.0273 19.6975C49.9017 19.6975 49.8208 19.6661 49.7707 19.616C49.7206 19.566 49.6892 19.485 49.6892 19.3594H49.5451C49.5451 19.5072 49.5821 19.6313 49.6688 19.7179C49.7554 19.8046 49.8795 19.8416 50.0273 19.8416V19.6975ZM51.1211 19.6975H50.0273V19.8416H51.1211V19.6975ZM51.4592 19.3594C51.4592 19.485 51.4278 19.566 51.3778 19.616C51.3277 19.6661 51.2467 19.6975 51.1211 19.6975V19.8416C51.2689 19.8416 51.393 19.8046 51.4797 19.7179C51.5663 19.6313 51.6033 19.5072 51.6033 19.3594H51.4592ZM51.4592 18.4844V19.3594H51.6033V18.4844H51.4592ZM51.1211 18.1463C51.2467 18.1463 51.3277 18.1776 51.3778 18.2277C51.4278 18.2778 51.4592 18.3588 51.4592 18.4844H51.6033C51.6033 18.3365 51.5663 18.2124 51.4797 18.1258C51.393 18.0392 51.2689 18.0022 51.1211 18.0022V18.1463ZM50.0273 18.1463H51.1211V18.0022H50.0273V18.1463ZM49.6892 18.4844C49.6892 18.3588 49.7206 18.2778 49.7707 18.2277C49.8208 18.1776 49.9017 18.1463 50.0273 18.1463V18.0022C49.8795 18.0022 49.7554 18.0392 49.6688 18.1258C49.5821 18.2124 49.5451 18.3365 49.5451 18.4844H49.6892ZM49.6892 19.3594V18.4844H49.5451V19.3594H49.6892Z" fill="#EDEBDC"/>
</svg>
