<svg width="50" height="12" viewBox="0 0 50 12" fill="none" xmlns="http://www.w3.org/2000/svg">
<path d="M0.255149 2.14062V0.818182H8.13512V2.14062H4.95827V11H3.42702V2.14062H0.255149ZM11.9409 11.1541C11.1885 11.1541 10.5405 10.9934 9.99698 10.6719C9.45674 10.3471 9.03912 9.89134 8.74414 9.30469C8.45247 8.71473 8.30664 8.02367 8.30664 7.23153C8.30664 6.44934 8.45247 5.75994 8.74414 5.16335C9.03912 4.56676 9.45011 4.10109 9.9771 3.76633C10.5074 3.43158 11.1272 3.2642 11.8365 3.2642C12.2673 3.2642 12.685 3.33546 13.0893 3.47798C13.4937 3.6205 13.8566 3.84422 14.1781 4.14915C14.4996 4.45407 14.7531 4.85014 14.9387 5.33736C15.1243 5.82126 15.2172 6.40956 15.2172 7.10227V7.62926H9.14684V6.51562H13.7605C13.7605 6.12453 13.6809 5.77817 13.5218 5.47656C13.3627 5.17164 13.139 4.93134 12.8507 4.75568C12.5656 4.58002 12.2309 4.49219 11.8464 4.49219C11.4288 4.49219 11.0642 4.59493 10.7527 4.80043C10.4444 5.0026 10.2058 5.26776 10.0368 5.59588C9.87103 5.92069 9.78817 6.27367 9.78817 6.65483V7.52486C9.78817 8.03527 9.87766 8.46946 10.0566 8.82741C10.2389 9.18537 10.4925 9.45881 10.8173 9.64773C11.1421 9.83333 11.5216 9.92614 11.9558 9.92614C12.2375 9.92614 12.4944 9.88636 12.7264 9.80682C12.9584 9.72396 13.1589 9.60133 13.3279 9.43892C13.497 9.27652 13.6262 9.07599 13.7157 8.83736L15.1227 9.09091C15.01 9.50521 14.8078 9.86813 14.5162 10.1797C14.2278 10.4879 13.8649 10.7282 13.4274 10.9006C12.9932 11.0696 12.4977 11.1541 11.9409 11.1541ZM16.7074 11V9.98082L20.8438 4.72585V4.65625H16.8416V3.36364H22.6982V4.44744L18.7209 9.63778V9.70739H22.8374V11H16.7074ZM23.7298 2.14062V0.818182H31.6097V2.14062H28.4329V11H26.9016V2.14062H23.7298ZM34.415 11.169C33.931 11.169 33.4935 11.0795 33.1025 10.9006C32.7114 10.7183 32.4015 10.4548 32.1728 10.1101C31.9474 9.76539 31.8347 9.3428 31.8347 8.84233C31.8347 8.41146 31.9176 8.05682 32.0833 7.77841C32.249 7.5 32.4727 7.27959 32.7544 7.11719C33.0362 6.95478 33.351 6.83215 33.699 6.74929C34.0471 6.66643 34.4017 6.60346 34.763 6.56037C35.2203 6.50734 35.5916 6.46425 35.8766 6.43111C36.1616 6.39465 36.3688 6.33665 36.498 6.2571C36.6273 6.17756 36.6919 6.0483 36.6919 5.86932V5.83452C36.6919 5.40033 36.5693 5.06392 36.324 4.82528C36.0821 4.58665 35.7208 4.46733 35.2402 4.46733C34.7398 4.46733 34.3453 4.57836 34.057 4.80043C33.772 5.01918 33.5748 5.26278 33.4654 5.53125L32.0684 5.21307C32.2341 4.74905 32.476 4.37453 32.7942 4.08949C33.1157 3.80114 33.4853 3.59233 33.9029 3.46307C34.3205 3.33049 34.7596 3.2642 35.2203 3.2642C35.5253 3.2642 35.8484 3.30066 36.1898 3.37358C36.5345 3.44318 36.856 3.57244 37.1543 3.76136C37.4559 3.95028 37.7028 4.22041 37.8951 4.57173C38.0873 4.91974 38.1834 5.37216 38.1834 5.92898V11H36.7317V9.95597H36.6721C36.5759 10.1482 36.4318 10.3371 36.2395 10.5227C36.0473 10.7083 35.8004 10.8625 35.4988 10.9851C35.1971 11.1077 34.8359 11.169 34.415 11.169ZM34.7381 9.97585C35.1491 9.97585 35.5004 9.89465 35.7921 9.73224C36.0871 9.56984 36.3108 9.35772 36.4632 9.09588C36.619 8.83073 36.6969 8.54735 36.6969 8.24574V7.26136C36.6439 7.31439 36.5411 7.36411 36.3887 7.41051C36.2395 7.4536 36.0688 7.49171 35.8766 7.52486C35.6844 7.55469 35.4971 7.58286 35.3148 7.60938C35.1325 7.63258 34.9801 7.65246 34.8574 7.66903C34.5691 7.70549 34.3056 7.76681 34.0669 7.85298C33.8316 7.93916 33.6427 8.06345 33.5002 8.22585C33.361 8.38494 33.2914 8.59706 33.2914 8.86222C33.2914 9.23011 33.4273 9.50852 33.699 9.69744C33.9708 9.88305 34.3172 9.97585 34.7381 9.97585ZM41.3366 3.36364L43.022 6.33665L44.7223 3.36364H46.348L43.9666 7.18182L46.3679 11H44.7422L43.022 8.14631L41.3068 11H39.6761L42.0526 7.18182L39.706 3.36364H41.3366ZM47.8743 11V3.36364H49.3608V11H47.8743ZM48.625 2.18537C48.3665 2.18537 48.1444 2.09919 47.9588 1.92685C47.7765 1.75118 47.6854 1.54238 47.6854 1.30043C47.6854 1.05516 47.7765 0.846354 47.9588 0.674005C48.1444 0.498342 48.3665 0.410511 48.625 0.410511C48.8835 0.410511 49.1039 0.498342 49.2862 0.674005C49.4718 0.846354 49.5646 1.05516 49.5646 1.30043C49.5646 1.54238 49.4718 1.75118 49.2862 1.92685C49.1039 2.09919 48.8835 2.18537 48.625 2.18537Z" fill="#F2E8D9"/>
</svg>
