<svg width="44" height="11" viewBox="0 0 44 11" fill="none" xmlns="http://www.w3.org/2000/svg">
<path d="M0.790128 2.40625V1.27273H7.54439V2.40625H4.82138V10H3.50888V2.40625H0.790128ZM10.8065 10.1321C10.1616 10.1321 9.60618 9.99432 9.14027 9.71875C8.6772 9.44034 8.31925 9.04972 8.06641 8.54688C7.81641 8.04119 7.69141 7.44886 7.69141 6.76989C7.69141 6.09943 7.81641 5.50852 8.06641 4.99716C8.31925 4.4858 8.67152 4.08665 9.12322 3.79972C9.57777 3.51278 10.109 3.36932 10.717 3.36932C11.0863 3.36932 11.4442 3.4304 11.7908 3.55256C12.1374 3.67472 12.4485 3.86648 12.7241 4.12784C12.9996 4.3892 13.217 4.72869 13.3761 5.14631C13.5352 5.56108 13.6147 6.06534 13.6147 6.65909V7.1108H8.41158V6.15625H12.3661C12.3661 5.82102 12.2979 5.52415 12.1616 5.26562C12.0252 5.00426 11.8335 4.7983 11.5863 4.64773C11.342 4.49716 11.055 4.42188 10.7255 4.42188C10.3675 4.42188 10.055 4.50994 9.788 4.68608C9.52379 4.85937 9.31925 5.08665 9.17436 5.3679C9.03232 5.64631 8.96129 5.94886 8.96129 6.27557V7.02131C8.96129 7.45881 9.038 7.83097 9.19141 8.13778C9.34766 8.4446 9.56499 8.67898 9.84339 8.84091C10.1218 9 10.4471 9.07955 10.8192 9.07955C11.0607 9.07955 11.2809 9.04545 11.4798 8.97727C11.6786 8.90625 11.8505 8.80114 11.9954 8.66193C12.1403 8.52273 12.2511 8.35085 12.3278 8.14631L13.5337 8.36364C13.4371 8.71875 13.2638 9.02983 13.0138 9.29688C12.7667 9.56108 12.4556 9.76705 12.0806 9.91477C11.7085 10.0597 11.2837 10.1321 10.8065 10.1321ZM14.892 10V9.12642L18.4375 4.62216V4.5625H15.0071V3.45455H20.027V4.38352L16.6179 8.83239V8.89205H20.1463V10H14.892ZM20.9112 2.40625V1.27273H27.6655V2.40625H24.9425V10H23.63V2.40625H20.9112ZM30.07 10.1449C29.6552 10.1449 29.2802 10.0682 28.945 9.91477C28.6097 9.75852 28.3441 9.53267 28.1481 9.23722C27.9549 8.94176 27.8583 8.57955 27.8583 8.15057C27.8583 7.78125 27.9293 7.47727 28.0714 7.23864C28.2134 7 28.4052 6.81108 28.6467 6.67188C28.8881 6.53267 29.158 6.42756 29.4563 6.35653C29.7546 6.28551 30.0586 6.23153 30.3683 6.1946C30.7603 6.14915 31.0785 6.11222 31.3228 6.08381C31.5671 6.05256 31.7447 6.00284 31.8555 5.93466C31.9663 5.86648 32.0217 5.75568 32.0217 5.60227V5.57244C32.0217 5.20028 31.9165 4.91193 31.7063 4.70739C31.4989 4.50284 31.1893 4.40057 30.7773 4.40057C30.3484 4.40057 30.0103 4.49574 29.7631 4.68608C29.5188 4.87358 29.3498 5.08239 29.256 5.3125L28.0586 5.03977C28.2006 4.64205 28.408 4.32102 28.6808 4.0767C28.9563 3.82955 29.2731 3.65057 29.631 3.53977C29.989 3.42614 30.3654 3.36932 30.7603 3.36932C31.0217 3.36932 31.2987 3.40057 31.5913 3.46307C31.8867 3.52273 32.1623 3.63352 32.418 3.79545C32.6765 3.95739 32.8881 4.18892 33.0529 4.49006C33.2177 4.78835 33.3001 5.17614 33.3001 5.65341V10H32.0558V9.10511H32.0046C31.9222 9.26989 31.7987 9.43182 31.6339 9.59091C31.4691 9.75 31.2575 9.8821 30.9989 9.98722C30.7404 10.0923 30.4308 10.1449 30.07 10.1449ZM30.3469 9.12216C30.6992 9.12216 31.0004 9.05256 31.2504 8.91335C31.5032 8.77415 31.695 8.59233 31.8256 8.3679C31.9592 8.14062 32.0259 7.89773 32.0259 7.6392V6.79545C31.9805 6.84091 31.8924 6.88352 31.7617 6.9233C31.6339 6.96023 31.4876 6.9929 31.3228 7.02131C31.158 7.04687 30.9975 7.07102 30.8413 7.09375C30.685 7.11364 30.5543 7.13068 30.4492 7.14489C30.2021 7.17614 29.9762 7.22869 29.7717 7.30256C29.57 7.37642 29.408 7.48295 29.2859 7.62216C29.1665 7.75852 29.1069 7.94034 29.1069 8.16761C29.1069 8.48295 29.2234 8.72159 29.4563 8.88352C29.6893 9.04261 29.9862 9.12216 30.3469 9.12216ZM36.0028 3.45455L37.4474 6.00284L38.9048 3.45455H40.2983L38.2571 6.72727L40.3153 10H38.9219L37.4474 7.55398L35.9773 10H34.5795L36.6165 6.72727L34.6051 3.45455H36.0028ZM41.6065 10V3.45455H42.8807V10H41.6065ZM42.25 2.4446C42.0284 2.4446 41.8381 2.37074 41.679 2.22301C41.5227 2.07244 41.4446 1.89347 41.4446 1.68608C41.4446 1.47585 41.5227 1.29687 41.679 1.14915C41.8381 0.998579 42.0284 0.923295 42.25 0.923295C42.4716 0.923295 42.6605 0.998579 42.8168 1.14915C42.9759 1.29687 43.0554 1.47585 43.0554 1.68608C43.0554 1.89347 42.9759 2.07244 42.8168 2.22301C42.6605 2.37074 42.4716 2.4446 42.25 2.4446Z" fill="#F2E8D9"/>
</svg>
